<svg width="60" height="61" viewBox="0 0 60 61" fill="none" xmlns="http://www.w3.org/2000/svg">
<path d="M41.34 60.3062V37.0862H49.1167L50.28 28.0595H41.34V22.2995C41.34 19.6861 42.0667 17.9028 45.8133 17.9028H50.5933V9.82948C48.2793 9.58397 45.9536 9.4649 43.6267 9.47282C36.7367 9.47282 32.02 13.6795 32.02 21.4062V28.0595H24.2267V37.0862H32.02V60.3062H3.33333C2.44928 60.3062 1.60143 59.955 0.976311 59.3298C0.351189 58.7047 0 57.8569 0 56.9728V3.63949C0 2.75543 0.351189 1.90758 0.976311 1.28246C1.60143 0.657342 2.44928 0.306152 3.33333 0.306152H56.6667C57.5507 0.306152 58.3986 0.657342 59.0237 1.28246C59.6488 1.90758 60 2.75543 60 3.63949V56.9728C60 57.8569 59.6488 58.7047 59.0237 59.3298C58.3986 59.955 57.5507 60.3062 56.6667 60.3062H41.34Z" fill="white"/>
</svg>
